<svg width="59" height="43" viewBox="0 0 59 43" fill="none" xmlns="http://www.w3.org/2000/svg">
<path d="M57.4625 21.8212C56.2033 22.5349 54.296 23.4197 53.4997 23.7728C52.9812 24.0702 53.3331 24.5349 54.0923 24.4791C54.8515 24.4234 59.0365 20.929 57.4625 21.8212Z" fill="#DFA314"/>
<path d="M55.5552 28.5683C56.1354 28.1036 58.1773 27.0776 58.8883 27.6575C59.5994 28.2374 56.728 28.5869 55.5552 28.5683Z" fill="#DFA314"/>
<path d="M55.3966 15.8683C54.2516 18.373 52.1785 21.058 51.1851 22.1929C50.5925 22.893 49.6407 23.7617 50.574 21.6353C51.3681 19.8259 53.6042 17.2242 55.0823 15.6604C55.2458 15.4874 55.4956 15.6516 55.3966 15.8683Z" fill="#DFA314"/>
<path d="M0.617574 31.3459C1.26939 37.1748 4.81487 40.7386 6.50613 41.7918C4.30873 39.8278 0.191671 33.1935 1.30272 22.3684C2.41377 11.5433 9.40721 5.87547 12.765 4.39471C19.0017 -1.35984 25.3199 1.36502 27.9679 3.2609C31.8566 2.51742 32.7084 3.5397 34.6527 5.08243C39.9857 5.08243 38.5414 5.00808 41.6894 5.58428C44.8373 6.16048 46.078 7.88907 47.652 10.7887C48.9112 13.1083 48.6087 16.7241 48.3001 18.2421C46.3928 22.2754 43.646 23.7562 42.1893 23.9669L45.1521 24.859C52.2443 18.2978 49.1519 9.46897 46.078 7.14559C43.5167 4.04328 38.2266 4.24601 34.6527 4.24601C32.7269 1.79252 29.3937 2.02176 27.9679 2.44307C20.9905 -2.50852 14.6662 1.19774 12.3762 3.66981C11.3392 4.24601 4.45069 8.35375 1.93232 15.454C-0.586063 22.5542 -0.197195 24.0598 0.617574 31.3459Z" fill="#435F3A"/>
<path d="M11.5985 7.51733C-1.97486 18.7253 3.11744 39.803 12.5614 42.2379C4.99142 35.0559 5.44447 25.5158 6.61725 21.6435C6.60243 25.6434 9.10477 29.4315 10.3578 30.8255C6.74317 23.1379 9.19736 16.941 10.8763 14.8035C10.8318 11.5916 11.3392 8.60777 11.5985 7.51733Z" fill="#2B472A"/>
<path d="M11.5985 7.51733C11.5103 7.88803 11.3935 8.47754 11.2795 9.22044C8.21524 12.3951 4.16536 18.5752 4.4507 26.3832C4.68475 32.7876 6.70891 37.2782 8.60961 39.9382C2.00117 33.6281 0.0866662 17.023 11.5985 7.51733Z" fill="#4D6E42"/>
<path d="M21.4868 37.0521C20.4054 35.3273 19.9869 35.0819 19.9128 35.1749C20.6979 40.2454 25.4001 42.5043 27.6531 43C26.468 42.3309 22.8386 39.2082 21.4868 37.0521Z" fill="#3C5C32"/>
<path d="M28.4123 40.3606C30.1159 40.9703 32.7269 40.5031 33.8194 40.1934C23.7829 37.0336 25.4495 31.792 23.9311 29.4315C22.4127 27.0709 22.0053 26.9036 18.8573 20.8071C16.3389 15.9298 13.8452 16.4329 12.9132 17.2941C14.6168 13.5767 18.7832 15.6337 20.6535 17.1268C26.6902 17.2755 25.8014 17.3685 27.7827 18.019C29.7641 18.6696 30.8011 20.361 37.7451 18.6881C43.6411 15.9075 46.2015 16.9967 46.7446 17.8889C47.615 11.9782 44.3929 7.33146 39.6154 7.07124C34.8379 6.81102 36.1526 7.33146 33.4306 6.49504C31.8455 4.90399 29.4246 5.10102 28.4123 5.39841C29.8197 5.48763 30.8134 6.27819 31.1344 6.66233C26.1162 6.14189 27.7272 4.52482 22.82 3.13079C17.9129 1.73676 13.1539 4.93373 10.7837 15.0451C8.41344 25.1564 13.5613 28.056 16.5241 29.1527C19.4869 30.2493 20.8572 31.569 22.783 34.7474C24.7088 37.9257 26.2828 39.5986 28.4123 40.3606Z" fill="#46623C"/>
<path d="M12.4688 18.7625C12.1416 20.0946 12.1947 23.3089 15.0242 25.5096C18.5532 28.2544 20.5705 27.8164 22.6764 34.5726C20.8058 31.5202 19.432 30.229 16.5241 29.1527C15.463 28.7599 14.1216 28.1358 12.9456 27.032C11.9341 24.5567 11.0814 21.0297 12.4688 18.7625Z" fill="#253F23"/>
<path d="M20.3572 6.66232C18.3573 6.82589 16.9809 8.37853 16.5426 9.1344C17.6833 2.93376 22.1781 5.00188 24.2829 6.81102C27.1531 9.04147 25.7273 9.1344 32.2454 9.04147C30.3196 10.5842 28.2642 10.9002 27.8938 10.9559C27.5975 11.0005 27.3753 11.9782 27.3013 12.4615C24.6792 15.2272 20.135 13.713 18.1907 12.6102C19.5684 12.9373 20.3325 12.8332 20.5424 12.7403C18.4388 10.7329 19.5424 7.85189 20.3572 6.66232Z" fill="#1E1E1E"/>
<path d="M21.321 9.90876C21.3803 7.15788 22.7283 7.94473 23.395 8.68202C22.932 8.47756 22.2839 10.0203 23.1172 10.5965C23.9505 11.1727 24.6541 10.7638 25.1171 10.485C25.58 10.2062 26.2837 8.75636 26.08 10.3549C25.8763 11.9533 21.2469 13.3474 21.321 9.90876Z" fill="#E18100"/>
<path d="M28.6716 22.3312C28.479 21.0375 28.2457 20.0822 28.1531 19.7662C28.316 19.9 29.5666 20.2433 30.1715 20.3982C29.8011 21.3052 29.0172 22.0648 28.6716 22.3312Z" fill="#9FA045"/>
<path d="M31.4492 24.0226C31.3899 22.5803 31.1035 21.0673 30.9677 20.4911C31.3084 20.6547 32.7269 20.7451 33.3935 20.7699C33.0528 22.4502 31.9553 23.6385 31.4492 24.0226Z" fill="#9FA045"/>
<path d="M34.7638 23.8368C34.7638 22.4836 34.5539 21.1788 34.449 20.6955C35.1453 20.7848 36.2699 20.5964 36.7452 20.4911C36.4785 21.9186 35.3132 23.3163 34.7638 23.8368Z" fill="#9FA045"/>
<path d="M38.6154 22.9074C38.5117 21.3758 38.2019 20.3362 38.0599 20.0078C39.171 19.8145 40.2265 19.3697 40.6153 19.1714C40.5561 20.8665 39.2574 22.3684 38.6154 22.9074Z" fill="#9FA045"/>
<path d="M41.9486 21.5134C41.919 20.3089 41.6647 19.2396 41.5412 18.8554C42.0745 18.7365 43.0596 18.558 43.4855 18.4837C43.2781 19.6286 42.3745 20.9805 41.9486 21.5134Z" fill="#9FA045"/>
<path d="M43.7818 21.755C44.0188 20.6695 44.0287 19.159 44.004 18.5394C44.641 18.361 45.4422 18.5642 45.7632 18.6881C45.7336 19.5357 44.4299 21.0859 43.7818 21.755Z" fill="#9FA045"/>
<path d="M24.3755 26.4575C22.8497 23.6323 23.4064 22.4551 23.8755 22.2197C25.0051 21.6063 27.7457 24.32 28.4679 26.0858C29.19 27.8516 29.8382 31.2902 29.7641 32.2195C29.69 33.1489 28.4123 34.8775 27.042 31.5318C25.6717 28.1861 26.2828 29.9891 24.3755 26.4575Z" fill="#823F1B"/>
<path d="M23.8755 22.2197C25.0051 21.6063 27.7457 24.32 28.4679 26.0858C29.1305 27.706 29.7307 30.7345 29.7679 31.9408C29.4352 31.4028 29.0718 30.6198 28.7827 29.543C28.079 26.9222 27.1346 25.2308 26.0791 24.004C25.4057 23.2213 24.3184 22.7413 23.5801 22.513C23.6679 22.3661 23.7738 22.2707 23.8755 22.2197Z" fill="#6A2810"/>
<path d="M30.8399 35.489L32.0024 30.4567C32.023 30.3674 32.1184 30.3179 32.2028 30.3527L35.1209 31.5516C35.402 31.6671 35.5506 31.9772 35.465 32.2696L35.0942 33.5369C34.9503 34.0285 35.2137 34.5474 35.6944 34.7196L38.9435 35.8834C39.1492 35.9571 39.3778 35.8698 39.4827 35.6775L40.3201 34.1425C40.4688 33.8699 40.7929 33.7463 41.0844 33.851L45.4703 35.4256C45.5881 35.4678 45.7165 35.469 45.835 35.4289L51.0602 33.6598C51.3982 33.5453 51.726 33.8571 51.6303 34.2021L50.2571 39.1531C50.1218 39.6408 49.754 40.0293 49.2757 40.1898L43.9658 41.9713C43.5253 42.1191 43.0461 42.0988 42.6196 41.9144L31.6968 37.1905C31.0388 36.9059 30.678 36.1895 30.8399 35.489Z" fill="#E18000"/>
<path d="M50.2571 39.1531C50.1218 39.6408 49.754 40.0293 49.2757 40.1898L44.9148 41.6529L46.3588 36.0341L51.62 34.2394L50.2571 39.1531Z" fill="#B96A03"/>
<path d="M51.0602 33.6598C51.3982 33.5453 51.726 33.8571 51.6303 34.2021L51.4967 34.6838C50.8816 35.1091 48.6325 36.1077 47.1488 36.7388C46.8467 36.8673 46.6186 37.1255 46.5296 37.4424L45.3918 41.4928L43.9658 41.9713C43.8257 42.0183 43.6817 42.0482 43.5368 42.0613L45.4546 35.4199L45.4703 35.4256C45.5881 35.4678 45.7165 35.469 45.835 35.4289L51.0602 33.6598Z" fill="#A75200"/>
<path d="M44.5987 35.1127C43.9273 37.2366 42.7047 40.8587 42.1317 41.7033L41.3641 41.3713C41.1554 40.6839 40.9635 39.1374 41.5968 37.4239C42.1311 35.978 42.5638 34.9862 42.809 34.4701L44.5987 35.1127Z" fill="#DB7800"/>
<path d="M32.0024 30.4567C32.023 30.3674 32.1184 30.3179 32.2028 30.3527L34.2875 31.2091C33.7565 32.0368 32.866 34.1953 32.6998 37.6242L31.6968 37.1905C31.0388 36.9059 30.678 36.1895 30.8399 35.489L32.0024 30.4567Z" fill="#DB7800"/>
<path fill-rule="evenodd" clip-rule="evenodd" d="M37.1482 30.5842C37.1708 30.5029 37.2563 30.4567 37.3363 30.4826L39.7556 31.2643C39.8321 31.289 39.875 31.3705 39.8523 31.4479L38.954 34.5103C38.9307 34.5897 38.8474 34.6347 38.7686 34.6105L36.3834 33.879C36.3066 33.8554 36.2624 33.7746 36.284 33.6968L37.1482 30.5842ZM37.8125 31.3816C37.7282 31.3487 37.6344 31.3986 37.6144 31.4872L37.25 33.0952C37.2335 33.1681 37.2734 33.2419 37.3432 33.2677L38.294 33.6197C38.3772 33.6505 38.4686 33.6015 38.4893 33.5149L38.8685 31.9316C38.8858 31.8592 38.8472 31.7852 38.7781 31.7582L37.8125 31.3816Z" fill="#3B5936"/>
<path d="M35.4645 30.4708L32.4303 29.0988C32.2368 29.0113 32.1319 28.7986 32.18 28.5911L32.7081 26.3105C32.8203 25.826 33.2129 25.4574 33.7021 25.3775L39.6809 24.4005C39.9298 24.3599 40.1848 24.3805 40.4239 24.4608L52.2577 28.4315C52.7193 28.5863 52.9827 29.0736 52.8603 29.5464L52.2944 31.7342C52.2398 31.9452 52.0862 32.1163 51.8828 32.1927L46.2188 34.3205C45.9969 34.4039 45.7523 34.4022 45.5316 34.3159L41.0714 32.5712C40.9329 32.517 40.8469 32.3774 40.8605 32.2288L40.9385 31.3781C40.9666 31.0713 40.7932 30.7815 40.5102 30.6622L37.0454 29.2019C36.8535 29.121 36.6318 29.1982 36.5312 29.381L36.036 30.2799C35.924 30.4832 35.6754 30.5662 35.4645 30.4708Z" fill="#E6A911"/>
<path d="M33.4599 25.4432C33.6949 25.6322 34.2184 25.9461 35.1897 26.3088C36.3863 26.7557 42.0326 28.932 45.1999 30.1548C45.5773 30.3004 45.9913 30.3158 46.3776 30.1961C47.8397 29.7427 50.1738 28.9954 51.1518 28.595C50.8826 28.986 49.5728 29.9285 46.4502 30.7633C45.9564 30.8953 45.4346 30.8615 44.9555 30.6832C41.421 29.3673 35.3225 27.0536 34.3564 26.5133C33.7928 26.1981 33.3496 25.9271 33.0326 25.7225C33.1528 25.6014 33.2981 25.5056 33.4599 25.4432Z" fill="#F4C844"/>
<path d="M52.7367 28.8006C52.8766 29.0133 52.9287 29.2821 52.8603 29.5464L52.2944 31.7342C52.2398 31.9452 52.0862 32.1163 51.8828 32.1927L46.2188 34.3205C46.1085 34.386 45.7937 34.4232 45.6641 34.3674L46.4021 31.8521C46.4974 31.527 46.7349 31.2631 47.0475 31.1349L52.7367 28.8006Z" fill="#CF7B2A"/>
<path d="M40.643 9.61531C39.2061 10.0317 40.0443 12.1679 40.643 13.184C40.9097 10.1804 43.0133 11.7838 44.0317 12.961C44.0132 10.6934 42.4392 9.09487 40.643 9.61531Z" fill="#1E1E1E"/>
</svg>
